<mxfile host="app.diagrams.net" agent="Mozilla/5.0 (Windows NT 10.0; Win64; x64; rv:138.0) Gecko/20100101 Firefox/138.0" version="27.0.4">
  <diagram name="Strona-1" id="0-YDl_hUyRBihAvIV0TR">
    <mxGraphModel grid="1" page="1" gridSize="10" guides="1" tooltips="1" connect="1" arrows="1" fold="1" pageScale="1" pageWidth="827" pageHeight="1169" math="0" shadow="0">
      <root>
        <mxCell id="0" />
        <mxCell id="1" parent="0" />
        <mxCell id="An5B5ql-5GJ8fOp5tiDr-14" value="Main" style="swimlane;fontStyle=1;align=center;verticalAlign=top;childLayout=stackLayout;horizontal=1;startSize=26;horizontalStack=0;resizeParent=1;resizeParentMax=0;resizeLast=0;collapsible=1;marginBottom=0;whiteSpace=wrap;html=1;" vertex="1" parent="1">
          <mxGeometry x="520" y="30" width="160" height="300" as="geometry">
            <mxRectangle x="560" y="120" width="100" height="30" as="alternateBounds" />
          </mxGeometry>
        </mxCell>
        <mxCell id="An5B5ql-5GJ8fOp5tiDr-15" value="&lt;div&gt;-seed: ?&lt;/div&gt;&lt;div&gt;-amount of iterations: int&lt;/div&gt;&lt;div&gt;-amount of entities: int&lt;/div&gt;&lt;div&gt;-size of map: int?&lt;/div&gt;&lt;div&gt;-entities: Array?&lt;/div&gt;&lt;div&gt;-buidlings: Array?&lt;/div&gt;&lt;div&gt;&lt;br&gt;&lt;/div&gt;&lt;div&gt;&lt;br&gt;&lt;/div&gt;" style="text;strokeColor=none;fillColor=none;align=left;verticalAlign=top;spacingLeft=4;spacingRight=4;overflow=hidden;rotatable=0;points=[[0,0.5],[1,0.5]];portConstraint=eastwest;whiteSpace=wrap;html=1;" vertex="1" parent="An5B5ql-5GJ8fOp5tiDr-14">
          <mxGeometry y="26" width="160" height="94" as="geometry" />
        </mxCell>
        <mxCell id="An5B5ql-5GJ8fOp5tiDr-16" value="" style="line;strokeWidth=1;fillColor=none;align=left;verticalAlign=middle;spacingTop=-1;spacingLeft=3;spacingRight=3;rotatable=0;labelPosition=right;points=[];portConstraint=eastwest;strokeColor=inherit;" vertex="1" parent="An5B5ql-5GJ8fOp5tiDr-14">
          <mxGeometry y="120" width="160" height="8" as="geometry" />
        </mxCell>
        <mxCell id="An5B5ql-5GJ8fOp5tiDr-17" value="&lt;div&gt;+ method(type): type&lt;/div&gt;&lt;div&gt;[dodaj więcej]&lt;/div&gt;&lt;div&gt;+draw(?): ?&lt;/div&gt;&lt;div&gt;+createMap?&lt;br&gt;nie wiem jak konkretnie dziala main to uzupelnij tak zeby byly wszystkie metody pls&lt;br&gt;i tu powinny byc WSZYSTKIE zmienne i metody&lt;/div&gt;" style="text;strokeColor=none;fillColor=none;align=left;verticalAlign=top;spacingLeft=4;spacingRight=4;overflow=hidden;rotatable=0;points=[[0,0.5],[1,0.5]];portConstraint=eastwest;whiteSpace=wrap;html=1;" vertex="1" parent="An5B5ql-5GJ8fOp5tiDr-14">
          <mxGeometry y="128" width="160" height="172" as="geometry" />
        </mxCell>
        <mxCell id="An5B5ql-5GJ8fOp5tiDr-18" value="&lt;p style=&quot;margin:0px;margin-top:4px;text-align:center;&quot;&gt;&lt;b&gt;Entity&lt;/b&gt;&lt;/p&gt;&lt;hr size=&quot;1&quot; style=&quot;border-style:solid;&quot;&gt;&lt;p style=&quot;margin:0px;margin-left:4px;&quot;&gt;+unsigned int xCoordinate&lt;/p&gt;&lt;p style=&quot;margin:0px;margin-left:4px;&quot;&gt;+ unsigned int yCoordinate&lt;br&gt;+target ?&lt;/p&gt;&lt;hr size=&quot;1&quot; style=&quot;border-style:solid;&quot;&gt;&lt;p style=&quot;margin:0px;margin-left:4px;&quot;&gt;+jakies metody dla wszystkich entities&lt;/p&gt;&lt;div&gt;+setDead(): void&lt;/div&gt;&lt;p style=&quot;margin:0px;margin-left:4px;&quot;&gt;&lt;br&gt;&lt;/p&gt;" style="verticalAlign=top;align=left;overflow=fill;html=1;whiteSpace=wrap;" vertex="1" parent="1">
          <mxGeometry x="190" y="310" width="190" height="140" as="geometry" />
        </mxCell>
        <mxCell id="An5B5ql-5GJ8fOp5tiDr-19" value="&lt;p style=&quot;margin:0px;margin-top:4px;text-align:center;&quot;&gt;&lt;b&gt;Building&lt;/b&gt;&lt;/p&gt;&lt;hr size=&quot;1&quot; style=&quot;border-style:solid;&quot;&gt;&lt;p style=&quot;margin:0px;margin-left:4px;&quot;&gt;+unsigned int xCoordinate&lt;/p&gt;&lt;p style=&quot;margin:0px;margin-left:4px;&quot;&gt;+ unsigned int yCoordinate&lt;/p&gt;&lt;p style=&quot;margin:0px;margin-left:4px;&quot;&gt;&lt;/p&gt;&lt;hr size=&quot;1&quot; style=&quot;border-style:solid;&quot;&gt;&lt;p style=&quot;margin:0px;margin-left:4px;&quot;&gt;+jakies metody dla wszystkich budynków?&lt;/p&gt;" style="verticalAlign=top;align=left;overflow=fill;html=1;whiteSpace=wrap;" vertex="1" parent="1">
          <mxGeometry x="750" y="310" width="190" height="110" as="geometry" />
        </mxCell>
        <mxCell id="An5B5ql-5GJ8fOp5tiDr-20" value="Human" style="swimlane;fontStyle=1;align=center;verticalAlign=top;childLayout=stackLayout;horizontal=1;startSize=26;horizontalStack=0;resizeParent=1;resizeParentMax=0;resizeLast=0;collapsible=1;marginBottom=0;whiteSpace=wrap;html=1;" vertex="1" parent="1">
          <mxGeometry x="190" y="504" width="160" height="150" as="geometry">
            <mxRectangle x="140" y="680" width="80" height="30" as="alternateBounds" />
          </mxGeometry>
        </mxCell>
        <mxCell id="An5B5ql-5GJ8fOp5tiDr-21" value="&lt;div&gt;-health: int&lt;/div&gt;&lt;div&gt;-hunger: int&lt;/div&gt;&lt;div&gt;-drunkness: int&lt;/div&gt;&lt;div&gt;-attack: int&lt;/div&gt;&lt;div&gt;-money: int&lt;/div&gt;" style="text;strokeColor=none;fillColor=none;align=left;verticalAlign=top;spacingLeft=4;spacingRight=4;overflow=hidden;rotatable=0;points=[[0,0.5],[1,0.5]];portConstraint=eastwest;whiteSpace=wrap;html=1;" vertex="1" parent="An5B5ql-5GJ8fOp5tiDr-20">
          <mxGeometry y="26" width="160" height="74" as="geometry" />
        </mxCell>
        <mxCell id="An5B5ql-5GJ8fOp5tiDr-22" value="" style="line;strokeWidth=1;fillColor=none;align=left;verticalAlign=middle;spacingTop=-1;spacingLeft=3;spacingRight=3;rotatable=0;labelPosition=right;points=[];portConstraint=eastwest;strokeColor=inherit;" vertex="1" parent="An5B5ql-5GJ8fOp5tiDr-20">
          <mxGeometry y="100" width="160" height="8" as="geometry" />
        </mxCell>
        <mxCell id="An5B5ql-5GJ8fOp5tiDr-23" value="&lt;div&gt;+attack(?): void&lt;/div&gt;&lt;div&gt;+getMoney(): int&lt;/div&gt;" style="text;strokeColor=none;fillColor=none;align=left;verticalAlign=top;spacingLeft=4;spacingRight=4;overflow=hidden;rotatable=0;points=[[0,0.5],[1,0.5]];portConstraint=eastwest;whiteSpace=wrap;html=1;" vertex="1" parent="An5B5ql-5GJ8fOp5tiDr-20">
          <mxGeometry y="108" width="160" height="42" as="geometry" />
        </mxCell>
        <mxCell id="An5B5ql-5GJ8fOp5tiDr-24" value="Animal" style="swimlane;fontStyle=1;align=center;verticalAlign=top;childLayout=stackLayout;horizontal=1;startSize=26;horizontalStack=0;resizeParent=1;resizeParentMax=0;resizeLast=0;collapsible=1;marginBottom=0;whiteSpace=wrap;html=1;" vertex="1" parent="1">
          <mxGeometry x="450" y="517" width="160" height="124" as="geometry" />
        </mxCell>
        <mxCell id="An5B5ql-5GJ8fOp5tiDr-25" value="&lt;div&gt;-rodzaj?&lt;/div&gt;&lt;div&gt;-health: int?&lt;/div&gt;&lt;div&gt;-attack: int?&lt;/div&gt;" style="text;strokeColor=none;fillColor=none;align=left;verticalAlign=top;spacingLeft=4;spacingRight=4;overflow=hidden;rotatable=0;points=[[0,0.5],[1,0.5]];portConstraint=eastwest;whiteSpace=wrap;html=1;" vertex="1" parent="An5B5ql-5GJ8fOp5tiDr-24">
          <mxGeometry y="26" width="160" height="64" as="geometry" />
        </mxCell>
        <mxCell id="An5B5ql-5GJ8fOp5tiDr-26" value="" style="line;strokeWidth=1;fillColor=none;align=left;verticalAlign=middle;spacingTop=-1;spacingLeft=3;spacingRight=3;rotatable=0;labelPosition=right;points=[];portConstraint=eastwest;strokeColor=inherit;" vertex="1" parent="An5B5ql-5GJ8fOp5tiDr-24">
          <mxGeometry y="90" width="160" height="8" as="geometry" />
        </mxCell>
        <mxCell id="An5B5ql-5GJ8fOp5tiDr-27" value="+ method(type): type" style="text;strokeColor=none;fillColor=none;align=left;verticalAlign=top;spacingLeft=4;spacingRight=4;overflow=hidden;rotatable=0;points=[[0,0.5],[1,0.5]];portConstraint=eastwest;whiteSpace=wrap;html=1;" vertex="1" parent="An5B5ql-5GJ8fOp5tiDr-24">
          <mxGeometry y="98" width="160" height="26" as="geometry" />
        </mxCell>
        <mxCell id="An5B5ql-5GJ8fOp5tiDr-28" value="Item" style="swimlane;fontStyle=1;align=center;verticalAlign=top;childLayout=stackLayout;horizontal=1;startSize=26;horizontalStack=0;resizeParent=1;resizeParentMax=0;resizeLast=0;collapsible=1;marginBottom=0;whiteSpace=wrap;html=1;" vertex="1" parent="1">
          <mxGeometry x="190" y="780" width="160" height="116" as="geometry" />
        </mxCell>
        <mxCell id="An5B5ql-5GJ8fOp5tiDr-29" value="&lt;div&gt;-name: String&lt;/div&gt;&lt;div&gt;-attack: int&lt;/div&gt;&lt;div&gt;-swiftness: int&lt;/div&gt;" style="text;strokeColor=none;fillColor=none;align=left;verticalAlign=top;spacingLeft=4;spacingRight=4;overflow=hidden;rotatable=0;points=[[0,0.5],[1,0.5]];portConstraint=eastwest;whiteSpace=wrap;html=1;" vertex="1" parent="An5B5ql-5GJ8fOp5tiDr-28">
          <mxGeometry y="26" width="160" height="44" as="geometry" />
        </mxCell>
        <mxCell id="An5B5ql-5GJ8fOp5tiDr-30" value="" style="line;strokeWidth=1;fillColor=none;align=left;verticalAlign=middle;spacingTop=-1;spacingLeft=3;spacingRight=3;rotatable=0;labelPosition=right;points=[];portConstraint=eastwest;strokeColor=inherit;" vertex="1" parent="An5B5ql-5GJ8fOp5tiDr-28">
          <mxGeometry y="70" width="160" height="20" as="geometry" />
        </mxCell>
        <mxCell id="An5B5ql-5GJ8fOp5tiDr-31" value="+ method(type): type" style="text;strokeColor=none;fillColor=none;align=left;verticalAlign=top;spacingLeft=4;spacingRight=4;overflow=hidden;rotatable=0;points=[[0,0.5],[1,0.5]];portConstraint=eastwest;whiteSpace=wrap;html=1;" vertex="1" parent="An5B5ql-5GJ8fOp5tiDr-28">
          <mxGeometry y="90" width="160" height="26" as="geometry" />
        </mxCell>
        <mxCell id="An5B5ql-5GJ8fOp5tiDr-38" value="Drunkard" style="swimlane;fontStyle=0;childLayout=stackLayout;horizontal=1;startSize=26;fillColor=none;horizontalStack=0;resizeParent=1;resizeParentMax=0;resizeLast=0;collapsible=1;marginBottom=0;whiteSpace=wrap;html=1;" vertex="1" parent="1">
          <mxGeometry x="10" y="660" width="140" height="30" as="geometry" />
        </mxCell>
        <mxCell id="An5B5ql-5GJ8fOp5tiDr-43" value="" style="endArrow=block;endSize=16;endFill=0;html=1;rounded=0;" edge="1" parent="1" source="An5B5ql-5GJ8fOp5tiDr-38" target="An5B5ql-5GJ8fOp5tiDr-20">
          <mxGeometry width="160" relative="1" as="geometry">
            <mxPoint x="150" y="700" as="sourcePoint" />
            <mxPoint x="310" y="700" as="targetPoint" />
          </mxGeometry>
        </mxCell>
        <mxCell id="An5B5ql-5GJ8fOp5tiDr-44" value="" style="endArrow=block;endSize=16;endFill=0;html=1;rounded=0;entryX=0.5;entryY=1;entryDx=0;entryDy=0;exitX=0.5;exitY=0;exitDx=0;exitDy=0;" edge="1" parent="1" source="An5B5ql-5GJ8fOp5tiDr-20" target="An5B5ql-5GJ8fOp5tiDr-18">
          <mxGeometry width="160" relative="1" as="geometry">
            <mxPoint x="270" y="520" as="sourcePoint" />
            <mxPoint x="325" y="475" as="targetPoint" />
          </mxGeometry>
        </mxCell>
        <mxCell id="An5B5ql-5GJ8fOp5tiDr-45" value="" style="endArrow=block;endSize=16;endFill=0;html=1;rounded=0;entryX=0.5;entryY=1;entryDx=0;entryDy=0;exitX=0.5;exitY=0;exitDx=0;exitDy=0;" edge="1" parent="1" source="An5B5ql-5GJ8fOp5tiDr-24" target="An5B5ql-5GJ8fOp5tiDr-18">
          <mxGeometry width="160" relative="1" as="geometry">
            <mxPoint x="550" y="470" as="sourcePoint" />
            <mxPoint x="550" y="390" as="targetPoint" />
          </mxGeometry>
        </mxCell>
        <mxCell id="An5B5ql-5GJ8fOp5tiDr-50" value="Cat" style="swimlane;fontStyle=0;childLayout=stackLayout;horizontal=1;startSize=26;fillColor=none;horizontalStack=0;resizeParent=1;resizeParentMax=0;resizeLast=0;collapsible=1;marginBottom=0;whiteSpace=wrap;html=1;" vertex="1" parent="1">
          <mxGeometry x="560" y="700" width="140" height="30" as="geometry" />
        </mxCell>
        <mxCell id="An5B5ql-5GJ8fOp5tiDr-56" value="" style="endArrow=block;endSize=16;endFill=0;html=1;rounded=0;exitX=0.5;exitY=0;exitDx=0;exitDy=0;" edge="1" parent="1" source="An5B5ql-5GJ8fOp5tiDr-50" target="An5B5ql-5GJ8fOp5tiDr-24">
          <mxGeometry width="160" relative="1" as="geometry">
            <mxPoint x="550" y="736" as="sourcePoint" />
            <mxPoint x="603" y="680" as="targetPoint" />
          </mxGeometry>
        </mxCell>
        <mxCell id="An5B5ql-5GJ8fOp5tiDr-57" value="Dog" style="swimlane;fontStyle=0;childLayout=stackLayout;horizontal=1;startSize=26;fillColor=none;horizontalStack=0;resizeParent=1;resizeParentMax=0;resizeLast=0;collapsible=1;marginBottom=0;whiteSpace=wrap;html=1;" vertex="1" parent="1">
          <mxGeometry x="390" y="700" width="140" height="30" as="geometry" />
        </mxCell>
        <mxCell id="An5B5ql-5GJ8fOp5tiDr-58" value="" style="endArrow=block;endSize=16;endFill=0;html=1;rounded=0;" edge="1" parent="1" source="An5B5ql-5GJ8fOp5tiDr-57" target="An5B5ql-5GJ8fOp5tiDr-24">
          <mxGeometry width="160" relative="1" as="geometry">
            <mxPoint x="780" y="618" as="sourcePoint" />
            <mxPoint x="620" y="595" as="targetPoint" />
          </mxGeometry>
        </mxCell>
        <mxCell id="An5B5ql-5GJ8fOp5tiDr-59" value="Sword" style="swimlane;fontStyle=0;childLayout=stackLayout;horizontal=1;startSize=26;fillColor=none;horizontalStack=0;resizeParent=1;resizeParentMax=0;resizeLast=0;collapsible=1;marginBottom=0;whiteSpace=wrap;html=1;" vertex="1" parent="1">
          <mxGeometry x="170" y="980" width="140" height="30" as="geometry" />
        </mxCell>
        <mxCell id="An5B5ql-5GJ8fOp5tiDr-60" value="" style="endArrow=block;endSize=16;endFill=0;html=1;rounded=0;" edge="1" parent="1" source="An5B5ql-5GJ8fOp5tiDr-59" target="An5B5ql-5GJ8fOp5tiDr-28">
          <mxGeometry width="160" relative="1" as="geometry">
            <mxPoint x="400" y="948" as="sourcePoint" />
            <mxPoint x="429" y="884" as="targetPoint" />
          </mxGeometry>
        </mxCell>
        <mxCell id="An5B5ql-5GJ8fOp5tiDr-61" value="Grocery Store" style="swimlane;fontStyle=1;align=center;verticalAlign=top;childLayout=stackLayout;horizontal=1;startSize=26;horizontalStack=0;resizeParent=1;resizeParentMax=0;resizeLast=0;collapsible=1;marginBottom=0;whiteSpace=wrap;html=1;" vertex="1" parent="1">
          <mxGeometry x="720" y="630" width="160" height="128" as="geometry" />
        </mxCell>
        <mxCell id="An5B5ql-5GJ8fOp5tiDr-62" value="&lt;div&gt;+ field: type&lt;/div&gt;&lt;div&gt;-np. cena produktu 1?&lt;/div&gt;" style="text;strokeColor=none;fillColor=none;align=left;verticalAlign=top;spacingLeft=4;spacingRight=4;overflow=hidden;rotatable=0;points=[[0,0.5],[1,0.5]];portConstraint=eastwest;whiteSpace=wrap;html=1;" vertex="1" parent="An5B5ql-5GJ8fOp5tiDr-61">
          <mxGeometry y="26" width="160" height="44" as="geometry" />
        </mxCell>
        <mxCell id="An5B5ql-5GJ8fOp5tiDr-63" value="" style="line;strokeWidth=1;fillColor=none;align=left;verticalAlign=middle;spacingTop=-1;spacingLeft=3;spacingRight=3;rotatable=0;labelPosition=right;points=[];portConstraint=eastwest;strokeColor=inherit;" vertex="1" parent="An5B5ql-5GJ8fOp5tiDr-61">
          <mxGeometry y="70" width="160" height="8" as="geometry" />
        </mxCell>
        <mxCell id="An5B5ql-5GJ8fOp5tiDr-64" value="&lt;div&gt;+ method(type): type&lt;/div&gt;" style="text;strokeColor=none;fillColor=none;align=left;verticalAlign=top;spacingLeft=4;spacingRight=4;overflow=hidden;rotatable=0;points=[[0,0.5],[1,0.5]];portConstraint=eastwest;whiteSpace=wrap;html=1;" vertex="1" parent="An5B5ql-5GJ8fOp5tiDr-61">
          <mxGeometry y="78" width="160" height="50" as="geometry" />
        </mxCell>
        <mxCell id="An5B5ql-5GJ8fOp5tiDr-65" value="Liquor Store" style="swimlane;fontStyle=1;align=center;verticalAlign=top;childLayout=stackLayout;horizontal=1;startSize=26;horizontalStack=0;resizeParent=1;resizeParentMax=0;resizeLast=0;collapsible=1;marginBottom=0;whiteSpace=wrap;html=1;" vertex="1" parent="1">
          <mxGeometry x="890" y="630" width="160" height="120" as="geometry" />
        </mxCell>
        <mxCell id="An5B5ql-5GJ8fOp5tiDr-66" value="+ field: type" style="text;strokeColor=none;fillColor=none;align=left;verticalAlign=top;spacingLeft=4;spacingRight=4;overflow=hidden;rotatable=0;points=[[0,0.5],[1,0.5]];portConstraint=eastwest;whiteSpace=wrap;html=1;" vertex="1" parent="An5B5ql-5GJ8fOp5tiDr-65">
          <mxGeometry y="26" width="160" height="26" as="geometry" />
        </mxCell>
        <mxCell id="An5B5ql-5GJ8fOp5tiDr-67" value="" style="line;strokeWidth=1;fillColor=none;align=left;verticalAlign=middle;spacingTop=-1;spacingLeft=3;spacingRight=3;rotatable=0;labelPosition=right;points=[];portConstraint=eastwest;strokeColor=inherit;" vertex="1" parent="An5B5ql-5GJ8fOp5tiDr-65">
          <mxGeometry y="52" width="160" height="8" as="geometry" />
        </mxCell>
        <mxCell id="An5B5ql-5GJ8fOp5tiDr-68" value="+ method(type): type" style="text;strokeColor=none;fillColor=none;align=left;verticalAlign=top;spacingLeft=4;spacingRight=4;overflow=hidden;rotatable=0;points=[[0,0.5],[1,0.5]];portConstraint=eastwest;whiteSpace=wrap;html=1;" vertex="1" parent="An5B5ql-5GJ8fOp5tiDr-65">
          <mxGeometry y="60" width="160" height="60" as="geometry" />
        </mxCell>
        <mxCell id="An5B5ql-5GJ8fOp5tiDr-69" value="Hospital" style="swimlane;fontStyle=1;align=center;verticalAlign=top;childLayout=stackLayout;horizontal=1;startSize=26;horizontalStack=0;resizeParent=1;resizeParentMax=0;resizeLast=0;collapsible=1;marginBottom=0;whiteSpace=wrap;html=1;" vertex="1" parent="1">
          <mxGeometry x="1080" y="630" width="160" height="86" as="geometry" />
        </mxCell>
        <mxCell id="An5B5ql-5GJ8fOp5tiDr-70" value="+ field: type" style="text;strokeColor=none;fillColor=none;align=left;verticalAlign=top;spacingLeft=4;spacingRight=4;overflow=hidden;rotatable=0;points=[[0,0.5],[1,0.5]];portConstraint=eastwest;whiteSpace=wrap;html=1;" vertex="1" parent="An5B5ql-5GJ8fOp5tiDr-69">
          <mxGeometry y="26" width="160" height="26" as="geometry" />
        </mxCell>
        <mxCell id="An5B5ql-5GJ8fOp5tiDr-71" value="" style="line;strokeWidth=1;fillColor=none;align=left;verticalAlign=middle;spacingTop=-1;spacingLeft=3;spacingRight=3;rotatable=0;labelPosition=right;points=[];portConstraint=eastwest;strokeColor=inherit;" vertex="1" parent="An5B5ql-5GJ8fOp5tiDr-69">
          <mxGeometry y="52" width="160" height="8" as="geometry" />
        </mxCell>
        <mxCell id="An5B5ql-5GJ8fOp5tiDr-72" value="+ method(type): type" style="text;strokeColor=none;fillColor=none;align=left;verticalAlign=top;spacingLeft=4;spacingRight=4;overflow=hidden;rotatable=0;points=[[0,0.5],[1,0.5]];portConstraint=eastwest;whiteSpace=wrap;html=1;" vertex="1" parent="An5B5ql-5GJ8fOp5tiDr-69">
          <mxGeometry y="60" width="160" height="26" as="geometry" />
        </mxCell>
        <mxCell id="An5B5ql-5GJ8fOp5tiDr-73" value="Office Building" style="swimlane;fontStyle=1;align=center;verticalAlign=top;childLayout=stackLayout;horizontal=1;startSize=26;horizontalStack=0;resizeParent=1;resizeParentMax=0;resizeLast=0;collapsible=1;marginBottom=0;whiteSpace=wrap;html=1;" vertex="1" parent="1">
          <mxGeometry x="1270" y="634" width="160" height="120" as="geometry" />
        </mxCell>
        <mxCell id="An5B5ql-5GJ8fOp5tiDr-74" value="+ field: type" style="text;strokeColor=none;fillColor=none;align=left;verticalAlign=top;spacingLeft=4;spacingRight=4;overflow=hidden;rotatable=0;points=[[0,0.5],[1,0.5]];portConstraint=eastwest;whiteSpace=wrap;html=1;" vertex="1" parent="An5B5ql-5GJ8fOp5tiDr-73">
          <mxGeometry y="26" width="160" height="26" as="geometry" />
        </mxCell>
        <mxCell id="An5B5ql-5GJ8fOp5tiDr-75" value="" style="line;strokeWidth=1;fillColor=none;align=left;verticalAlign=middle;spacingTop=-1;spacingLeft=3;spacingRight=3;rotatable=0;labelPosition=right;points=[];portConstraint=eastwest;strokeColor=inherit;" vertex="1" parent="An5B5ql-5GJ8fOp5tiDr-73">
          <mxGeometry y="52" width="160" height="8" as="geometry" />
        </mxCell>
        <mxCell id="An5B5ql-5GJ8fOp5tiDr-76" value="&lt;div&gt;+ method(type): type&lt;/div&gt;&lt;div&gt;+np. funkcja do dawania kasy?&lt;/div&gt;" style="text;strokeColor=none;fillColor=none;align=left;verticalAlign=top;spacingLeft=4;spacingRight=4;overflow=hidden;rotatable=0;points=[[0,0.5],[1,0.5]];portConstraint=eastwest;whiteSpace=wrap;html=1;" vertex="1" parent="An5B5ql-5GJ8fOp5tiDr-73">
          <mxGeometry y="60" width="160" height="60" as="geometry" />
        </mxCell>
        <mxCell id="An5B5ql-5GJ8fOp5tiDr-80" value="" style="endArrow=block;endSize=16;endFill=0;html=1;rounded=0;" edge="1" parent="1" source="An5B5ql-5GJ8fOp5tiDr-61" target="An5B5ql-5GJ8fOp5tiDr-19">
          <mxGeometry width="160" relative="1" as="geometry">
            <mxPoint x="670" y="740" as="sourcePoint" />
            <mxPoint x="621" y="681" as="targetPoint" />
          </mxGeometry>
        </mxCell>
        <mxCell id="An5B5ql-5GJ8fOp5tiDr-81" value="" style="endArrow=block;endSize=16;endFill=0;html=1;rounded=0;" edge="1" parent="1" source="An5B5ql-5GJ8fOp5tiDr-65" target="An5B5ql-5GJ8fOp5tiDr-19">
          <mxGeometry width="160" relative="1" as="geometry">
            <mxPoint x="807" y="490" as="sourcePoint" />
            <mxPoint x="832" y="430" as="targetPoint" />
          </mxGeometry>
        </mxCell>
        <mxCell id="An5B5ql-5GJ8fOp5tiDr-82" value="" style="endArrow=block;endSize=16;endFill=0;html=1;rounded=0;" edge="1" parent="1" source="An5B5ql-5GJ8fOp5tiDr-69" target="An5B5ql-5GJ8fOp5tiDr-19">
          <mxGeometry width="160" relative="1" as="geometry">
            <mxPoint x="817" y="500" as="sourcePoint" />
            <mxPoint x="842" y="440" as="targetPoint" />
          </mxGeometry>
        </mxCell>
        <mxCell id="An5B5ql-5GJ8fOp5tiDr-83" value="" style="endArrow=block;endSize=16;endFill=0;html=1;rounded=0;" edge="1" parent="1" source="An5B5ql-5GJ8fOp5tiDr-73" target="An5B5ql-5GJ8fOp5tiDr-19">
          <mxGeometry width="160" relative="1" as="geometry">
            <mxPoint x="827" y="510" as="sourcePoint" />
            <mxPoint x="852" y="450" as="targetPoint" />
          </mxGeometry>
        </mxCell>
        <mxCell id="An5B5ql-5GJ8fOp5tiDr-90" value="0..1" style="endArrow=diamondThin;endFill=1;endSize=24;html=1;rounded=0;" edge="1" parent="1" source="An5B5ql-5GJ8fOp5tiDr-28" target="An5B5ql-5GJ8fOp5tiDr-20">
          <mxGeometry x="-0.8413" y="-20" width="160" relative="1" as="geometry">
            <mxPoint x="300" y="670" as="sourcePoint" />
            <mxPoint x="460" y="670" as="targetPoint" />
            <mxPoint as="offset" />
          </mxGeometry>
        </mxCell>
        <mxCell id="An5B5ql-5GJ8fOp5tiDr-91" value="1" style="edgeLabel;html=1;align=center;verticalAlign=middle;resizable=0;points=[];" vertex="1" connectable="0" parent="An5B5ql-5GJ8fOp5tiDr-90">
          <mxGeometry x="0.1962" y="-2" relative="1" as="geometry">
            <mxPoint x="13" y="-36" as="offset" />
          </mxGeometry>
        </mxCell>
        <mxCell id="An5B5ql-5GJ8fOp5tiDr-92" value="1" style="endArrow=diamondThin;endFill=0;endSize=24;html=1;rounded=0;" edge="1" parent="1" source="An5B5ql-5GJ8fOp5tiDr-24" target="An5B5ql-5GJ8fOp5tiDr-20">
          <mxGeometry x="0.8" y="-19" width="160" relative="1" as="geometry">
            <mxPoint x="400" y="810" as="sourcePoint" />
            <mxPoint x="560" y="810" as="targetPoint" />
            <mxPoint as="offset" />
          </mxGeometry>
        </mxCell>
        <mxCell id="An5B5ql-5GJ8fOp5tiDr-93" value="0..1" style="edgeLabel;html=1;align=center;verticalAlign=middle;resizable=0;points=[];" vertex="1" connectable="0" parent="An5B5ql-5GJ8fOp5tiDr-92">
          <mxGeometry x="-0.1867" y="1" relative="1" as="geometry">
            <mxPoint x="21" y="-13" as="offset" />
          </mxGeometry>
        </mxCell>
        <mxCell id="An5B5ql-5GJ8fOp5tiDr-94" value="1..*" style="endArrow=diamondThin;endFill=1;endSize=24;html=1;rounded=0;" edge="1" parent="1" source="An5B5ql-5GJ8fOp5tiDr-18" target="An5B5ql-5GJ8fOp5tiDr-14">
          <mxGeometry x="-0.8413" y="-20" width="160" relative="1" as="geometry">
            <mxPoint x="350" y="266" as="sourcePoint" />
            <mxPoint x="350" y="140" as="targetPoint" />
            <mxPoint as="offset" />
          </mxGeometry>
        </mxCell>
        <mxCell id="An5B5ql-5GJ8fOp5tiDr-95" value="1" style="edgeLabel;html=1;align=center;verticalAlign=middle;resizable=0;points=[];" vertex="1" connectable="0" parent="An5B5ql-5GJ8fOp5tiDr-94">
          <mxGeometry x="0.1962" y="-2" relative="1" as="geometry">
            <mxPoint x="13" y="-36" as="offset" />
          </mxGeometry>
        </mxCell>
        <mxCell id="An5B5ql-5GJ8fOp5tiDr-96" value="1..*" style="endArrow=diamondThin;endFill=1;endSize=24;html=1;rounded=0;" edge="1" parent="1" source="An5B5ql-5GJ8fOp5tiDr-19" target="An5B5ql-5GJ8fOp5tiDr-14">
          <mxGeometry x="-0.8413" y="-20" width="160" relative="1" as="geometry">
            <mxPoint x="780" y="239" as="sourcePoint" />
            <mxPoint x="920" y="150" as="targetPoint" />
            <mxPoint as="offset" />
          </mxGeometry>
        </mxCell>
        <mxCell id="An5B5ql-5GJ8fOp5tiDr-97" value="1" style="edgeLabel;html=1;align=center;verticalAlign=middle;resizable=0;points=[];" vertex="1" connectable="0" parent="An5B5ql-5GJ8fOp5tiDr-96">
          <mxGeometry x="0.1962" y="-2" relative="1" as="geometry">
            <mxPoint x="13" y="-36" as="offset" />
          </mxGeometry>
        </mxCell>
      </root>
    </mxGraphModel>
  </diagram>
</mxfile>
